<svg xmlns="http://www.w3.org/2000/svg" viewBox="0 0 32 32" width="32" height="32">
  <path d="M 6 15 L 6 19" fill="none" stroke="#0000FF" stroke-width="1.189207115002721" stroke-linecap="round" stroke-linejoin="round"/>
  <path d="M 6 19 L 13 19" fill="none" stroke="#0000FF" stroke-width="1.189207115002721" stroke-linecap="round" stroke-linejoin="round"/>
  <path d="M 11 15 L 3 15" fill="none" stroke="#0000FF" stroke-width="1.9999999999999996" stroke-linecap="round" stroke-linejoin="round"/>
  <path d="M 3 15 L 3 28" fill="none" stroke="#0000FF" stroke-width="1.9999999999999996" stroke-linecap="round" stroke-linejoin="round"/>
  <path d="M 3 28 L 16 28" fill="none" stroke="#0000FF" stroke-width="1.9999999999999996" stroke-linecap="round" stroke-linejoin="round"/>
  <path d="M 16 28 L 16 24" fill="none" stroke="#0000FF" stroke-width="1.9999999999999996" stroke-linecap="round" stroke-linejoin="round"/>
  <path d="M 21 9 Q 22.0625 31.6875 16 14" fill="none" stroke="#0000FF" stroke-width="1.9999999999999996" stroke-linecap="round" stroke-linejoin="round"/>
  <path d="M 22 9 Q 23.3125 35.5 14 15" fill="none" stroke="#0000FF" stroke-width="1.9999999999999996" stroke-linecap="round" stroke-linejoin="round"/>
  <path d="M 16 14 L 14 15" fill="none" stroke="#0000FF" stroke-width="1.9999999999999996" stroke-linecap="round" stroke-linejoin="round"/>
  <path d="M 16 16 Q 24.125 34.5 24 9" fill="none" stroke="#0000FF" stroke-width="1.9999999999999996" stroke-linecap="round" stroke-linejoin="round"/>
  <path d="M 13 17 L 13 19" fill="none" stroke="#0000FF" stroke-width="1" stroke-linecap="round" stroke-linejoin="round"/>
  <path d="M 21 9 L 24 9" fill="none" stroke="#0000FF" stroke-width="1.9999999999999996" stroke-linecap="round" stroke-linejoin="round"/>
  <path d="M 22 3 Q 23.4375 3 22 3" fill="none" stroke="#0000FF" stroke-width="5.656854249492378" stroke-linecap="round" stroke-linejoin="round"/>
</svg>