<svg xmlns="http://www.w3.org/2000/svg" viewBox="0 0 32 32" width="32" height="32">
  <path d="M 2 15 L 4 13" fill="none" stroke="#808080" stroke-width="1.9999999999999996" stroke-linecap="round" stroke-linejoin="round"/>
  <path d="M 4 13 L 4 6" fill="none" stroke="#808080" stroke-width="1.9999999999999996" stroke-linecap="round" stroke-linejoin="round"/>
  <path d="M 4 6 L 6 4" fill="none" stroke="#808080" stroke-width="1.9999999999999996" stroke-linecap="round" stroke-linejoin="round"/>
  <path d="M 2 15 L 4 17" fill="none" stroke="#808080" stroke-width="1.9999999999999996" stroke-linecap="round" stroke-linejoin="round"/>
  <path d="M 4 17 L 4 25" fill="none" stroke="#808080" stroke-width="1.9999999999999996" stroke-linecap="round" stroke-linejoin="round"/>
  <path d="M 4 25 L 6 27" fill="none" stroke="#808080" stroke-width="1.9999999999999996" stroke-linecap="round" stroke-linejoin="round"/>
  <path d="M 27 3 L 29 5" fill="none" stroke="#808080" stroke-width="1.9999999999999996" stroke-linecap="round" stroke-linejoin="round"/>
  <path d="M 29 6 L 29 13" fill="none" stroke="#808080" stroke-width="1.9999999999999996" stroke-linecap="round" stroke-linejoin="round"/>
  <path d="M 29 13 L 31 15" fill="none" stroke="#808080" stroke-width="1.9999999999999996" stroke-linecap="round" stroke-linejoin="round"/>
  <path d="M 31 15 L 29 17" fill="none" stroke="#808080" stroke-width="1.9999999999999996" stroke-linecap="round" stroke-linejoin="round"/>
  <path d="M 29 17 L 29 25" fill="none" stroke="#808080" stroke-width="1.9999999999999996" stroke-linecap="round" stroke-linejoin="round"/>
  <path d="M 29 25 L 27 27" fill="none" stroke="#808080" stroke-width="1.9999999999999996" stroke-linecap="round" stroke-linejoin="round"/>
  <path d="M 18 5 Q 16.5 5.0625 17 6" fill="none" stroke="#808080" stroke-width="3.363585661014857" stroke-linecap="round" stroke-linejoin="round"/>
  <path d="M 17 5 L 18 6" fill="none" stroke="#808080" stroke-width="1.9999999999999996" stroke-linecap="round" stroke-linejoin="round"/>
  <path d="M 18 10 Q 20.8125 28.8125 11 22" fill="none" stroke="#808080" stroke-width="1.9999999999999996" stroke-linecap="round" stroke-linejoin="round"/>
  <path d="M 19 9 Q 19.5 31.8125 11 22" fill="none" stroke="#808080" stroke-width="1.9999999999999996" stroke-linecap="round" stroke-linejoin="round"/>
  <path d="M 18 10 L 19 9" fill="none" stroke="#808080" stroke-width="1.9999999999999996" stroke-linecap="round" stroke-linejoin="round"/>
</svg>