<svg xmlns="http://www.w3.org/2000/svg" viewBox="0 0 32 32" width="32" height="32">
  <path d="M 2 1 L 30 1" fill="none" stroke="#808080" stroke-width="1" stroke-linecap="round" stroke-linejoin="round"/>
  <path d="M 2 1 L 2 4" fill="none" stroke="#808080" stroke-width="1" stroke-linecap="round" stroke-linejoin="round"/>
  <path d="M 2 4 L 30 4" fill="none" stroke="#808080" stroke-width="1" stroke-linecap="round" stroke-linejoin="round"/>
  <path d="M 30 1 L 30 4" fill="none" stroke="#808080" stroke-width="1" stroke-linecap="round" stroke-linejoin="round"/>
  <path d="M 5 7 L 10 7" fill="none" stroke="#808080" stroke-width="1.6817928305074288" stroke-linecap="round" stroke-linejoin="round"/>
  <path d="M 17 7 L 30 7" fill="none" stroke="#808080" stroke-width="1.6817928305074288" stroke-linecap="round" stroke-linejoin="round"/>
  <path d="M 5 10 L 10 10" fill="none" stroke="#808080" stroke-width="1.6817928305074288" stroke-linecap="round" stroke-linejoin="round"/>
  <path d="M 17 10 L 27 10" fill="none" stroke="#808080" stroke-width="1.6817928305074288" stroke-linecap="round" stroke-linejoin="round"/>
  <path d="M 30.125 12.8125 L 5 13" fill="none" stroke="#808080" stroke-width="1" stroke-linecap="round" stroke-linejoin="round"/>
  <path d="M 5 13 L 5 16" fill="none" stroke="#808080" stroke-width="1" stroke-linecap="round" stroke-linejoin="round"/>
  <path d="M 5 16 L 30 16" fill="none" stroke="#808080" stroke-width="1" stroke-linecap="round" stroke-linejoin="round"/>
  <path d="M 30 13 L 30 16" fill="none" stroke="#808080" stroke-width="1" stroke-linecap="round" stroke-linejoin="round"/>
  <path d="M 8 19 L 11 19" fill="none" stroke="#808080" stroke-width="1.6817928305074288" stroke-linecap="round" stroke-linejoin="round"/>
  <path d="M 8 22 L 10 22" fill="none" stroke="#808080" stroke-width="1.6817928305074288" stroke-linecap="round" stroke-linejoin="round"/>
  <path d="M 19 19 L 23 19" fill="none" stroke="#808080" stroke-width="1.6817928305074288" stroke-linecap="round" stroke-linejoin="round"/>
  <path d="M 19 22 L 27 22" fill="none" stroke="#808080" stroke-width="1.6817928305074288" stroke-linecap="round" stroke-linejoin="round"/>
  <path d="M 8 25 L 12 25" fill="none" stroke="#808080" stroke-width="1.6817928305074288" stroke-linecap="round" stroke-linejoin="round"/>
  <path d="M 8 28 L 11 28" fill="none" stroke="#808080" stroke-width="1.6817928305074288" stroke-linecap="round" stroke-linejoin="round"/>
  <path d="M 19 25 L 26 25" fill="none" stroke="#808080" stroke-width="1.6817928305074288" stroke-linecap="round" stroke-linejoin="round"/>
  <path d="M 19 28 L 28 28" fill="none" stroke="#808080" stroke-width="1.6817928305074288" stroke-linecap="round" stroke-linejoin="round"/>
  <path d="M 5 19 L 5 30" fill="none" stroke="#808080" stroke-width="1" stroke-linecap="round" stroke-linejoin="round"/>
  <path d="M 2 7 L 2 30" fill="none" stroke="#808080" stroke-width="1" stroke-linecap="round" stroke-linejoin="round"/>
</svg>