<svg xmlns="http://www.w3.org/2000/svg" viewBox="0 0 32 32" width="32" height="32">
  <path d="M 2 2 L 30 2" fill="none" stroke="#808080" stroke-width="1.9999999999999996" stroke-linecap="round" stroke-linejoin="round"/>
  <path d="M 30 2 L 30 4" fill="none" stroke="#808080" stroke-width="1.9999999999999996" stroke-linecap="round" stroke-linejoin="round"/>
  <path d="M 30 4 L 2 4" fill="none" stroke="#808080" stroke-width="1.9999999999999996" stroke-linecap="round" stroke-linejoin="round"/>
  <path d="M 2 4 L 2 2" fill="none" stroke="#808080" stroke-width="1.9999999999999996" stroke-linecap="round" stroke-linejoin="round"/>
  <path d="M 2 8 L 7 8" fill="none" stroke="#808080" stroke-width="1.9999999999999996" stroke-linecap="round" stroke-linejoin="round"/>
  <path d="M 7 8 L 7 10" fill="none" stroke="#808080" stroke-width="1.9999999999999996" stroke-linecap="round" stroke-linejoin="round"/>
  <path d="M 7 10 L 2 10" fill="none" stroke="#808080" stroke-width="1.9999999999999996" stroke-linecap="round" stroke-linejoin="round"/>
  <path d="M 2 10 L 2 8" fill="none" stroke="#808080" stroke-width="1.9999999999999996" stroke-linecap="round" stroke-linejoin="round"/>
  <path d="M 2 14 L 7 14" fill="none" stroke="#808080" stroke-width="1.9999999999999996" stroke-linecap="round" stroke-linejoin="round"/>
  <path d="M 2 16 L 7 16" fill="none" stroke="#808080" stroke-width="1.9999999999999996" stroke-linecap="round" stroke-linejoin="round"/>
  <path d="M 7 16 L 7 15" fill="none" stroke="#808080" stroke-width="1.9999999999999996" stroke-linecap="round" stroke-linejoin="round"/>
  <path d="M 2 14 L 2 16" fill="none" stroke="#808080" stroke-width="1.9999999999999996" stroke-linecap="round" stroke-linejoin="round"/>
  <path d="M 7 14 L 7 15" fill="none" stroke="#808080" stroke-width="1.9999999999999996" stroke-linecap="round" stroke-linejoin="round"/>
  <path d="M 9 20 L 14 20" fill="none" stroke="#808080" stroke-width="1.9999999999999996" stroke-linecap="round" stroke-linejoin="round"/>
  <path d="M 14 20 L 14 22" fill="none" stroke="#808080" stroke-width="1.9999999999999996" stroke-linecap="round" stroke-linejoin="round"/>
  <path d="M 14 22 L 9 22" fill="none" stroke="#808080" stroke-width="1.9999999999999996" stroke-linecap="round" stroke-linejoin="round"/>
  <path d="M 9 22 L 9 20" fill="none" stroke="#808080" stroke-width="1.9999999999999996" stroke-linecap="round" stroke-linejoin="round"/>
  <path d="M 11 8 Q 12.75 9 11 10" fill="none" stroke="#808080" stroke-width="1.9999999999999996" stroke-linecap="round" stroke-linejoin="round"/>
  <path d="M 14 8 Q 12.25 8.8125 14 10" fill="none" stroke="#808080" stroke-width="1.9999999999999996" stroke-linecap="round" stroke-linejoin="round"/>
  <path d="M 17 8 Q 17.875 9.125 17 10" fill="none" stroke="#808080" stroke-width="1.9999999999999996" stroke-linecap="round" stroke-linejoin="round"/>
  <path d="M 11 14 Q 12.25 15 11 16" fill="none" stroke="#808080" stroke-width="1.9999999999999996" stroke-linecap="round" stroke-linejoin="round"/>
  <path d="M 14 14 L 14 16" fill="none" stroke="#808080" stroke-width="1.9999999999999996" stroke-linecap="round" stroke-linejoin="round"/>
  <path d="M 9 26 L 14 26" fill="none" stroke="#808080" stroke-width="1.9999999999999996" stroke-linecap="round" stroke-linejoin="round"/>
  <path d="M 14 28 L 9 28" fill="none" stroke="#808080" stroke-width="1.9999999999999996" stroke-linecap="round" stroke-linejoin="round"/>
  <path d="M 14 26 L 14 28" fill="none" stroke="#808080" stroke-width="1.9999999999999996" stroke-linecap="round" stroke-linejoin="round"/>
  <path d="M 9 28 L 9 26" fill="none" stroke="#808080" stroke-width="1.9999999999999996" stroke-linecap="round" stroke-linejoin="round"/>
  <path d="M 21 20 Q 19.25 20.875 21 22" fill="none" stroke="#808080" stroke-width="1.9999999999999996" stroke-linecap="round" stroke-linejoin="round"/>
  <path d="M 24 20 Q 25.5 20.8125 24 22" fill="none" stroke="#808080" stroke-width="1.9999999999999996" stroke-linecap="round" stroke-linejoin="round"/>
  <path d="M 24 26 Q 23.125 26.8125 24 28" fill="none" stroke="#808080" stroke-width="1.9999999999999996" stroke-linecap="round" stroke-linejoin="round"/>
  <path d="M 21 26 Q 22.6875 27.125 21 28" fill="none" stroke="#808080" stroke-width="1.9999999999999996" stroke-linecap="round" stroke-linejoin="round"/>
  <path d="M 18 26 Q 19.75 27.1875 18 28" fill="none" stroke="#808080" stroke-width="1.9999999999999996" stroke-linecap="round" stroke-linejoin="round"/>
  <path d="M 18 20 L 18 22" fill="none" stroke="#808080" stroke-width="1.9999999999999996" stroke-linecap="round" stroke-linejoin="round"/>
  <path d="M 20 8 L 20 10" fill="none" stroke="#808080" stroke-width="1.9999999999999996" stroke-linecap="round" stroke-linejoin="round"/>
  <path d="M 17 14 Q 15.5625 15.0625 17 16" fill="none" stroke="#808080" stroke-width="1.9999999999999996" stroke-linecap="round" stroke-linejoin="round"/>
  <path d="M 27 20 Q 24.9375 20.75 27 22" fill="none" stroke="#808080" stroke-width="1.9999999999999996" stroke-linecap="round" stroke-linejoin="round"/>
  <path d="M 4 19 L 4 19" fill="none" stroke="#808080" stroke-width="1.9999999999999996" stroke-linecap="round" stroke-linejoin="round"/>
  <path d="M 4 22 L 4 22" fill="none" stroke="#808080" stroke-width="1.9999999999999996" stroke-linecap="round" stroke-linejoin="round"/>
  <path d="M 4 25 L 4 25" fill="none" stroke="#808080" stroke-width="1.9999999999999996" stroke-linecap="round" stroke-linejoin="round"/>
  <path d="M 4 28 L 4 28" fill="none" stroke="#808080" stroke-width="1.9999999999999996" stroke-linecap="round" stroke-linejoin="round"/>
</svg>